<svg xmlns="http://www.w3.org/2000/svg" viewBox="0 0 400 225" fill="none">
  <defs>
    <linearGradient id="pg" x1="0" y1="0" x2="400" y2="225" gradientUnits="userSpaceOnUse">
      <stop offset="0%" stop-color="#2d1b69"/>
      <stop offset="100%" stop-color="#11998e"/>
    </linearGradient>
  </defs>
  <rect width="400" height="225" fill="url(#pg)"/>
  <!-- Open book -->
  <rect x="110" y="75" width="80" height="90" rx="4" fill="#fff" opacity="0.15"/>
  <rect x="210" y="75" width="80" height="90" rx="4" fill="#fff" opacity="0.15"/>
  <line x1="200" y1="75" x2="200" y2="165" stroke="#fff" stroke-width="2" opacity="0.5"/>
  <!-- Lines on pages -->
  <rect x="122" y="92" width="55" height="4" rx="2" fill="#fff" opacity="0.4"/>
  <rect x="122" y="102" width="45" height="4" rx="2" fill="#fff" opacity="0.4"/>
  <rect x="122" y="112" width="55" height="4" rx="2" fill="#fff" opacity="0.4"/>
  <rect x="122" y="122" width="38" height="4" rx="2" fill="#fff" opacity="0.4"/>
  <rect x="122" y="132" width="50" height="4" rx="2" fill="#fff" opacity="0.4"/>
  <rect x="222" y="92" width="55" height="4" rx="2" fill="#fff" opacity="0.4"/>
  <rect x="222" y="102" width="45" height="4" rx="2" fill="#fff" opacity="0.4"/>
  <rect x="222" y="112" width="55" height="4" rx="2" fill="#fff" opacity="0.4"/>
  <rect x="222" y="122" width="38" height="4" rx="2" fill="#fff" opacity="0.4"/>
  <!-- Feather quill -->
  <path d="M270 50 Q310 30 320 60 Q300 70 280 90 Q265 75 270 50Z" fill="#f6d860" opacity="0.85"/>
  <path d="M280 90 L265 140" stroke="#f6d860" stroke-width="2" opacity="0.7"/>
  <!-- Stars -->
  <circle cx="60" cy="40" r="3" fill="#f6d860" opacity="0.6"/>
  <circle cx="340" cy="170" r="2" fill="#f6d860" opacity="0.5"/>
  <circle cx="80" cy="180" r="2" fill="#fff" opacity="0.4"/>
  <!-- Label -->
  <text x="200" y="198" text-anchor="middle" font-family="Georgia, serif" font-size="13" fill="#fff" opacity="0.9" letter-spacing="2">KAVITHAI POTTI</text>
</svg>
